<?xml version="1.0" encoding="UTF-8" standalone="no"?><!DOCTYPE svg PUBLIC "-//W3C//DTD SVG 1.1//EN" "http://www.w3.org/Graphics/SVG/1.1/DTD/svg11.dtd"><svg width="100%" height="100%" viewBox="0 0 2048 2048" version="1.1" xmlns="http://www.w3.org/2000/svg" xmlns:xlink="http://www.w3.org/1999/xlink" xml:space="preserve" xmlns:serif="http://www.serif.com/" style="fill-rule:evenodd;clip-rule:evenodd;stroke-linejoin:round;stroke-miterlimit:2;"><g><path d="M1023.079,2015.772l-0.065,0.08c-99.553,-118.053 -216.234,-146.189 -329.103,-173.41c-31.294,-7.551 -63.648,-15.349 -94.884,-24.948c-201.4,-61.927 -295.907,-157.494 -280.869,-284.035c131.871,-1110.227 -18.646,-1312.506 -70.945,-1348.889c71.715,-28.506 396.578,-148.774 772.709,-149.565l6.6,-0.007c376.117,0.799 700.986,121.067 772.702,149.572c-52.3,36.384 -202.83,238.662 -70.945,1348.889c15.037,126.541 -79.469,222.101 -280.884,284.035c-31.229,9.599 -63.59,17.404 -94.891,24.948c-112.978,27.243 -229.783,55.414 -329.227,173.555l-0.196,-0.225Z" style="fill:#edf2f4;fill-rule:nonzero;stroke:#2b2d42;stroke-width:33.33px;"/><path d="M1043.379,314.257l0,-178.387c366.186,4.223 633.931,116.367 633.931,116.367c0,0 -38.58,22.204 -64.287,168.688c-24.178,-26.076 -158.853,-63.212 -158.882,-63.048c-0.029,0.165 -71.547,492.068 6.519,1149.342l0.008,7.627c0.765,6.422 161.648,-93.194 166.342,-103.334c3.467,-5.935 11.381,37.665 15.622,73.37c16.743,140.497 -118.366,213.845 -248.61,253.874c-118.507,36.34 -244.474,40.537 -350.644,153.458l0,-234.315c24.964,-7.032 98.843,-25.091 168.023,-42.728l0,0.12c1.429,-0.406 -0,-0.12 -0,-0.12l-0,-1300.694c-73.118,-7.875 -136.173,-9.165 -168.023,-0.218Z" style="fill:#006466;"/><path d="M1005.574,1662.936l-2.52,229.277c-106.169,-112.921 -232.137,-117.117 -350.644,-153.458c-130.244,-40.029 -265.353,-113.377 -248.61,-253.874c134.818,-1135.095 -34.678,-1232.644 -34.678,-1232.644c0,0 267.745,-112.144 633.931,-116.367l0,178.48c-62.729,6.975 -187.171,7.947 -287.08,28.006c-43.991,7.949 -58.6,14.302 -93.438,23.082c18.64,90.195 39.068,219.279 35.531,440.79l352.548,-7.589l-4.201,196.614l-351.613,-12.602c-7.426,146.009 -16.921,321.786 -41.313,527.153c-1.787,14.993 1.588,24.98 13.226,32.674c30.775,20.344 38.255,24.355 75.008,35.652c43.369,13.331 257.694,71.579 303.852,84.804Z" style="fill:#d90429;"/></g></svg>