<?xml version="1.0" encoding="UTF-8" standalone="no"?><!DOCTYPE svg PUBLIC "-//W3C//DTD SVG 1.1//EN" "http://www.w3.org/Graphics/SVG/1.1/DTD/svg11.dtd"><svg width="100%" height="100%" viewBox="0 0 2048 2048" version="1.1" xmlns="http://www.w3.org/2000/svg" xmlns:xlink="http://www.w3.org/1999/xlink" xml:space="preserve" xmlns:serif="http://www.serif.com/" style="fill-rule:evenodd;clip-rule:evenodd;stroke-linejoin:round;stroke-miterlimit:2;"><g><path d="M1023.903,1501.839l-0.046,0.056c-70.355,-83.43 -152.815,-103.314 -232.582,-122.551c-22.116,-5.337 -44.981,-10.848 -67.056,-17.631c-142.332,-43.765 -209.121,-111.303 -198.494,-200.732c93.195,-784.613 -13.177,-927.566 -50.138,-953.279c50.682,-20.145 280.267,-105.141 546.084,-105.7l4.664,-0.005c265.807,0.564 495.397,85.559 546.079,105.705c-36.961,25.713 -143.343,168.666 -50.138,953.279c10.627,89.428 -56.162,156.962 -198.505,200.732c-22.07,6.784 -44.94,12.3 -67.061,17.631c-79.843,19.253 -162.39,39.162 -232.669,122.654l-0.139,-0.159Z" style="fill:#edf2f4;fill-rule:nonzero;stroke:#2b2d42;stroke-width:33.33px;"/><path d="M1038.249,299.354l0,-126.068c258.789,2.985 448.008,82.238 448.008,82.238c0,0 -27.265,15.692 -45.433,119.214c-17.087,-18.428 -112.264,-44.673 -112.284,-44.557c-0.02,0.116 -50.563,347.751 4.607,812.256l0.006,5.39c0.541,4.539 114.239,-65.861 117.557,-73.028c2.45,-4.194 8.043,26.618 11.04,51.851c11.833,99.291 -83.651,151.127 -175.696,179.416c-83.751,25.682 -172.773,28.648 -247.805,108.451l0,-165.594c17.642,-4.97 69.854,-17.732 118.744,-30.196l0,0.085c1.01,-0.287 -0,-0.085 -0,-0.085l-0,-919.219c-51.673,-5.565 -96.235,-6.477 -118.744,-0.154Z" style="fill:#006466;"/><path d="M1011.532,1252.484l-1.781,162.033c-75.031,-79.803 -164.054,-82.768 -247.805,-108.451c-92.045,-28.289 -187.529,-80.125 -175.696,-179.416c95.278,-802.187 -24.507,-871.127 -24.507,-871.127c0,0 189.219,-79.253 448.008,-82.238l0,126.134c-44.332,4.929 -132.277,5.616 -202.884,19.792c-31.089,5.618 -41.413,10.107 -66.034,16.313c13.173,63.742 27.61,154.968 25.11,311.512l249.15,-5.363l-2.969,138.95l-248.49,-8.906c-5.248,103.187 -11.958,227.411 -29.197,372.546c-1.263,10.596 1.122,17.654 9.347,23.091c21.749,14.378 27.035,17.212 53.009,25.196c30.65,9.422 182.116,50.586 214.736,59.932Z" style="fill:#d90429;"/></g><g><path d="M372.345,1571.133c19.221,-0.008 36.943,3.439 53.164,10.34c16.221,6.901 30.191,17.257 41.909,31.068c11.719,13.811 20.811,30.851 27.276,51.121c6.465,20.27 9.703,43.62 9.714,70.049c0.011,26.73 -3.209,50.157 -9.658,70.282c-6.449,20.125 -15.528,36.947 -27.235,50.467c-11.708,13.52 -25.669,23.737 -41.885,30.651c-16.215,6.914 -33.934,10.375 -53.155,10.383c-19.221,0.008 -36.868,-3.439 -52.938,-10.341c-16.071,-6.901 -29.965,-17.107 -41.684,-30.618c-11.718,-13.51 -20.81,-30.326 -27.276,-50.446c-6.465,-20.12 -9.703,-43.545 -9.714,-70.275c-0.01,-26.43 3.209,-49.782 9.658,-70.057c6.449,-20.275 15.528,-37.323 27.235,-51.143c11.708,-13.82 25.594,-24.187 41.659,-31.101c16.065,-6.914 33.709,-10.375 52.93,-10.383Zm0.018,45.05c-26.73,0.011 -47.9,9.78 -63.509,29.308c-15.61,19.528 -23.407,48.964 -23.391,88.308c0.016,39.344 7.836,68.774 23.461,88.289c15.625,19.516 36.803,29.268 63.533,29.258c26.73,-0.011 47.975,-9.855 63.735,-29.533c15.76,-19.678 23.632,-49.039 23.616,-88.083c-0.016,-39.344 -7.836,-68.774 -23.461,-88.289c-15.625,-19.516 -36.953,-29.268 -63.983,-29.257Z" style="fill:#d90429;fill-rule:nonzero;stroke:#d90429;stroke-width:16.67px;"/><path d="M532.31,1662.498l51.642,-0.02l43.988,70.83l39.664,-70.863l51.642,-0.02l-70.377,110.141l75.589,116.485l-52.496,0.021l-48.259,-79.364l-45.209,79.401l-51.642,0.02l75.068,-119.532l-69.61,-107.097Z" style="fill:#d90429;fill-rule:nonzero;stroke:#d90429;stroke-width:16.67px;"/><path d="M825.213,1970.953l-44.386,0.018l33.253,-93.908l-77.335,-214.646l46.947,-0.019l53.412,159.599l52.859,-159.642l46.094,-0.018l-110.844,308.615Z" style="fill:#d90429;fill-rule:nonzero;stroke:#d90429;stroke-width:16.67px;"/><path d="M1051.784,1888.919l-111.398,-311.704l50.456,-0.02l80.736,240.988l80.995,-241.052l49.555,-0.02l-111.601,311.793l-38.743,0.015Z" style="fill:#006466;fill-rule:nonzero;stroke:#006466;stroke-width:16.67px;"/><path d="M1355.604,1867.032c-6.825,8.823 -15.358,15.655 -25.599,20.496c-10.241,4.841 -22.19,7.264 -35.848,7.27c-9.674,0.004 -19.277,-1.557 -28.81,-4.683c-9.533,-3.126 -18.071,-7.889 -25.613,-14.287c-7.543,-6.399 -13.663,-14.434 -18.362,-24.107c-4.699,-9.672 -7.05,-21.195 -7.056,-34.567c-0.005,-12.519 2.267,-23.403 6.816,-32.652c4.549,-9.249 10.805,-16.863 18.77,-22.841c7.964,-5.978 17.281,-10.463 27.95,-13.455c10.669,-2.992 22.263,-4.49 34.782,-4.495c12.235,-0.005 22.55,1.769 30.945,5.323c8.395,3.553 15.154,7.605 20.277,12.156c-0.004,-10.528 -0.719,-19.846 -2.145,-27.954c-1.426,-8.109 -3.918,-14.865 -7.477,-20.27c-3.559,-5.405 -8.54,-9.528 -14.943,-12.371c-6.403,-2.843 -14.442,-4.262 -24.116,-4.258c-11.381,0.005 -21.766,1.858 -31.154,5.561c-9.388,3.703 -16.784,7.547 -22.189,11.532l-18.366,-34.563c6.542,-5.978 16.285,-11.245 29.229,-15.803c12.944,-4.558 28.379,-6.84 46.304,-6.847c29.306,-0.012 50.72,8.089 64.242,24.302c13.522,16.213 20.289,41.96 20.303,77.242l0.052,131.025l-37.985,0.015l-0.009,-21.766Zm-1.735,-70.42c-4.839,-5.689 -11.883,-10.309 -21.132,-13.862c-9.249,-3.553 -19.421,-5.327 -30.518,-5.323c-15.365,0.006 -27.242,3.212 -35.633,9.617c-8.391,6.405 -12.584,16.437 -12.578,30.094c0.005,12.804 4.277,22.618 12.815,29.444c8.539,6.825 20.063,10.235 34.574,10.229c5.975,-0.002 11.736,-0.929 17.284,-2.781c5.548,-1.852 10.668,-4.13 15.362,-6.835c4.694,-2.705 8.747,-5.836 12.16,-9.394c3.413,-3.558 5.972,-7.044 7.678,-10.459l-0.012,-30.729Z" style="fill:#006466;fill-rule:nonzero;stroke:#006466;stroke-width:16.67px;"/><path d="M1465.258,1785.471c0.009,23.047 3.075,40.046 9.196,50.998c6.122,10.952 16.865,16.425 32.229,16.419c9.959,-0.004 18.493,-3.279 25.604,-9.826c7.111,-6.547 13.509,-16.508 19.194,-29.883l-0.06,-151.085l42.253,-0.017l0.09,226.627l-40.119,0.016l-0.009,-21.766c-7.394,9.677 -16.069,16.722 -26.026,21.137c-9.957,4.414 -20.341,6.623 -31.153,6.628c-10.243,0.004 -19.847,-1.77 -28.811,-5.323c-8.964,-3.553 -16.72,-8.956 -23.267,-16.209c-6.547,-7.253 -11.743,-16.356 -15.589,-27.309c-3.845,-10.953 -5.771,-23.685 -5.777,-38.196l-0.058,-145.536l42.253,-0.017l0.049,123.343Z" style="fill:#006466;fill-rule:nonzero;stroke:#006466;stroke-width:16.67px;"/><path d="M1623.948,1592.07l42.247,-14.528l0.123,311.132l-42.253,0.017l-0.118,-296.621Z" style="fill:#006466;fill-rule:nonzero;stroke:#006466;stroke-width:16.67px;"/><path d="M1760.213,1889.064c-5.975,0.002 -11.951,-1.133 -17.927,-3.407c-5.976,-2.274 -11.312,-5.615 -16.009,-10.023c-4.696,-4.408 -8.469,-9.884 -11.317,-16.427c-2.848,-6.543 -4.274,-14.225 -4.277,-23.045l-0.055,-138.281l-27.742,0.011l-0.014,-35.851l27.742,-0.011l-0.025,-63.592l42.674,-14.528l0.031,78.103l45.667,-0.018l0.014,35.851l-45.667,0.018l0.052,130.599c0.002,5.975 2.138,10.669 6.407,14.082c4.269,3.413 9.107,5.118 14.513,5.116c5.406,-0.002 11.096,-1.285 17.07,-3.848c5.974,-2.563 11.236,-6.406 15.787,-11.53l-8.945,45.67c-3.129,3.131 -8.178,5.765 -15.148,7.902c-6.97,2.137 -14.581,3.207 -22.832,3.21Z" style="fill:#006466;fill-rule:nonzero;stroke:#006466;stroke-width:16.67px;"/></g></svg>